<svg xmlns="http://www.w3.org/2000/svg" width="174" height="40" viewBox="0 0 174 40">
  <g id="logo" transform="translate(-240 -63)">
    <path id="logo-2" data-name="logo" d="M52.369,9.776h-.5c-.3.6-.4.9-.7,1.5l-.4.9-4.289,7.581-.9,1.6-.7,1.5h8.18ZM16.16,0H30.424L19.152,27.93a10.018,10.018,0,0,1-.9,1.8l.1.1c.7,0,.9-.1,1.2-.1h7.681c.6-1,.7-1.3,1.3-2.394L46.085,0H62.444l2.793,27.731.1,3.092.1,1.3h.4a30.862,30.862,0,0,1,1.5-4.788L78.6,0h20.05l-1.6,17.357-.1,1.8-.2,2.095h.4c1.2-2.095,1.6-2.993,2.394-4.19L110.623,0h30.823l2.494,10.873a8.7,8.7,0,0,1,.4,2.993h.3a21.562,21.562,0,0,1,2.394-3.092L157.007.1h16.658L147.731,25.636,141.945,39.9H128.279l6.683-17.057L131.671,9.476c-.1-.9-.3-1.5-.4-3.092h-.3l-1.3,3.591-1,2.993L117.805,39.9H104.738l9.077-21.945a22.479,22.479,0,0,1,1.9-4.289l-.9-.1-.9,1.5-1.2,1.8L96.16,39.9H84.389l1.9-22.843a25.987,25.987,0,0,1,.3-3.392h-.6c-.9,2.494-1.2,3.691-1.9,5.387L76.11,40H53.965l-.6-6.384v-1.9H40L35.312,39.9H0L16.16,0Z" transform="translate(240 63)" fill="#191919" fill-rule="evenodd"/>
    <rect id="area" width="174" height="40" transform="translate(240 63)" fill="#191919" opacity="0"/>
  </g>
</svg>
