<svg xmlns="http://www.w3.org/2000/svg" width="25" height="25" viewBox="0 0 25 25">
  <g id="btn_facebook" transform="translate(-1447.501 -9776)">
    <path id="icon_facebook" d="M24,12A12,12,0,1,0,12,24c.07,0,.141,0,.211,0V14.658H9.633v-3h2.578V9.441A3.61,3.61,0,0,1,16.064,5.48a20.943,20.943,0,0,1,2.311.117V8.278H16.8c-1.242,0-1.486.591-1.486,1.458v1.913h2.977l-.389,3H15.314v8.883A12,12,0,0,0,24,12Z" transform="translate(1448 9776.5)" fill="#191919"/>
    <rect id="영역" width="24" height="24" transform="translate(1448.001 9776.5)" fill="#191919" stroke="#999" stroke-width="1" opacity="0"/>
  </g>
</svg>
