<svg xmlns="http://www.w3.org/2000/svg" width="25" height="25" viewBox="0 0 25 25">
  <g id="btn_youtube" transform="translate(-1526.5 -9776.5)">
    <path id="icon_youtube" d="M12257,12865.207c-.075,0-7.516-.006-9.389-.514a3.008,3.008,0,0,1-2.115-2.118,33.969,33.969,0,0,1,0-11.546,3.069,3.069,0,0,1,2.115-2.134c1.855-.488,9.313-.494,9.389-.494s7.535.006,9.393.514a3.015,3.015,0,0,1,2.115,2.114,30.468,30.468,0,0,1,.493,5.793,31.979,31.979,0,0,1-.493,5.776,3.015,3.015,0,0,1-2.115,2.114C12264.533,12865.2,12257.074,12865.207,12257,12865.207Zm-2.393-12h0v7.2l6.248-3.6-6.248-3.6Z" transform="translate(-10718.002 -3067.402)" fill="#191919"/>
    <rect id="영역" width="24" height="24" transform="translate(1527 9777)" fill="#191919" stroke="#999" stroke-width="1" opacity="0"/>
  </g>
</svg>
