<svg xmlns="http://www.w3.org/2000/svg" width="25" height="25" viewBox="0 0 25 25">
  <g id="btn_kakao" transform="translate(-13 -12.5)">
    <path id="icon_kakao" d="M4.644,22a.21.21,0,0,1-.181-.08c-.181-.247.083-1.083.521-2.47l0-.007.031-.1c.181-.574.386-1.226.606-1.979C2.1,15.627,0,12.649,0,9.4,0,4.215,5.382,0,12,0S24,4.215,24,9.4s-5.384,9.4-12,9.4a14.845,14.845,0,0,1-2.128-.151l-1.255.882C6.277,21.171,5.1,22,4.644,22ZM9.46,6.6a.963.963,0,0,0-.921.671C8.188,8.355,7.792,9.3,7.474,10.063l0,.006c-.591,1.414-.947,2.269-.428,2.509a1.179,1.179,0,0,0,.475.122c.456,0,.606-.446.738-.839a2.655,2.655,0,0,1,.151-.386h2.109a2.573,2.573,0,0,1,.146.378c.132.4.281.844.74.844a1.177,1.177,0,0,0,.471-.12c.521-.241.17-1.082-.412-2.476-.321-.766-.719-1.72-1.078-2.833A.968.968,0,0,0,9.46,6.6ZM4.485,7.924a.888.888,0,0,1,.185.014,23.151,23.151,0,0,1,0,2.667v.023c-.042.959-.07,1.592.2,1.877a.648.648,0,0,0,.49.172.643.643,0,0,0,.49-.173c.273-.284.246-.921.2-1.884v-.033a23.292,23.292,0,0,1,0-2.649,1.094,1.094,0,0,1,.2-.014c.076,0,.159,0,.248.008h.052c.118.007.231.013.345.013.425,0,.913-.077.913-.683,0-.585-.437-.7-1.191-.7-.25,0-.553.013-.821.025l-.093,0c-.319.012-.715.028-1.135.028-.356,0-.678-.01-.984-.032a.678.678,0,0,0-.678.675c0,.6.517.681.966.681.111,0,.221-.006.329-.011S4.4,7.924,4.485,7.924ZM17,6.589a.691.691,0,0,0-.693.688,30.731,30.731,0,0,1,0,3.164v.007c-.043,1.1-.069,1.758.212,2.052a.631.631,0,0,0,.478.168.691.691,0,0,0,.693-.688v-1.5l.241-.238,1.622,2.138a.65.65,0,0,0,.531.279.769.769,0,0,0,.662-.416.634.634,0,0,0-.085-.693l-1.7-2.242,1.576-1.567a.552.552,0,0,0,.1-.622A.691.691,0,0,0,20,6.685c-.253,0-.331.081-.84.6-.274.282-.734.755-1.475,1.464a3.9,3.9,0,0,1,0-.664c.027-.489.056-1.042-.207-1.32A.628.628,0,0,0,17,6.589Zm-3.318,5.963c.207,0,.418.009.6.018l.053,0h.019c.219.01.415.019.6.019.562,0,1.083-.079,1.087-.644s-.54-.65-1.011-.65c-.151,0-.31.008-.46.017l-.038,0c-.138.008-.273.014-.4.014a2,2,0,0,1-.229-.012V7.277a.706.706,0,0,0-1.412,0,31.923,31.923,0,0,1,0,3.2c-.042,1.04-.068,1.669.2,1.942a.6.6,0,0,0,.467.162A5.025,5.025,0,0,1,13.678,12.552Zm-3.526-2.294H8.771L9.46,8.307l.693,1.95Z" transform="translate(13 14.5)" fill="#191919"/>
    <rect id="영역" width="24" height="24" transform="translate(13.5 13)" fill="#191919" stroke="#999" stroke-width="1" opacity="0"/>
  </g>
</svg>
