<svg xmlns="http://www.w3.org/2000/svg" width="48" height="48" viewBox="0 0 48 48">
  <g id="icon" transform="translate(-236 12014)">
    <g id="lamp_icon" transform="translate(218 -12030.9)">
      <path id="패스_10676" data-name="패스 10676" d="M50.992,35.771a13.1,13.1,0,0,0-7.906,22.852,8.347,8.347,0,0,1,2.244,3.265,2.9,2.9,0,0,0,.255,3.877,2.993,2.993,0,0,0,1.938,5.05,4.209,4.209,0,0,0,4.132,3.316h.663a4.251,4.251,0,0,0,4.132-3.316,2.957,2.957,0,0,0,1.887-5.05,2.942,2.942,0,0,0,.051-4.081,8.037,8.037,0,0,1,2.091-2.959,13.108,13.108,0,0,0-9.488-22.954ZM47.677,62.5H56.2a1.187,1.187,0,0,1,1.173,1.173A1.154,1.154,0,0,1,56.2,64.846H47.677A1.154,1.154,0,0,1,46.5,63.673,1.187,1.187,0,0,1,47.677,62.5Zm4.591,9.845H51.6a2.436,2.436,0,0,1-2.244-1.53h5.152a2.436,2.436,0,0,1-2.244,1.53Zm3.877-3.316H47.677a1.173,1.173,0,0,1,0-2.346h8.468a1.173,1.173,0,0,1,0,2.346Zm.663-8.213a3.185,3.185,0,0,0-.612-.051H47.422a2.585,2.585,0,0,0-.663.1,10.943,10.943,0,0,0-2.55-3.52,11.355,11.355,0,0,1,6.886-19.792A11.307,11.307,0,0,1,63.132,48.829,11.142,11.142,0,0,1,59.358,57.3,9.171,9.171,0,0,0,56.807,60.817Z" transform="translate(-9.65 -9.23)" fill="#191919"/>
      <path id="패스_10677" data-name="패스 10677" d="M102.742,60.1H99.018a.918.918,0,1,0,0,1.836h3.724a.918.918,0,0,0,0-1.836Z" transform="translate(-38.751 -21.164)" fill="#191919"/>
      <path id="패스_10678" data-name="패스 10678" d="M23.642,60.2H19.918a.918.918,0,0,0,0,1.836h3.724a.918.918,0,0,0,0-1.836Z" transform="translate(0 -21.213)" fill="#191919"/>
      <path id="패스_10679" data-name="패스 10679" d="M90.489,29.843,87.836,32.5a.944.944,0,0,0-.051,1.275.955.955,0,0,0,1.326,0l2.652-2.652a.9.9,0,1,0-1.275-1.275Z" transform="translate(-33.589 -6.21)" fill="#191919"/>
      <path id="패스_10680" data-name="패스 10680" d="M63.118,22.46a.914.914,0,0,0,.918-.918V17.818a.918.918,0,0,0-1.836,0v3.724A.914.914,0,0,0,63.118,22.46Z" transform="translate(-21.164)" fill="#191919"/>
      <path id="패스_10681" data-name="패스 10681" d="M35.771,32.489l-2.652-2.652a.944.944,0,0,0-1.275-.051.893.893,0,0,0,0,1.275L34.5,33.713a.893.893,0,0,0,1.275,0A.833.833,0,0,0,35.771,32.489Z" transform="translate(-6.161 -6.203)" fill="#191919"/>
    </g>
    <rect id="area" width="48" height="48" transform="translate(236 -12014)" fill="#191919" opacity="0"/>
  </g>
</svg>
