<svg xmlns="http://www.w3.org/2000/svg" width="48" height="48" viewBox="0 0 48 48">
  <g id="icon" transform="translate(-236 12014)">
    <path id="pen_icon" d="M16.28,48a.8.8,0,1,1,0-1.61H34.915a.8.8,0,0,1,0,1.61ZM16,45.574l-.005,0-.054-.023a.681.681,0,0,1-.222-.148.114.114,0,0,1-.027-.034l-.047-.05c-.016-.017-.032-.035-.049-.052l-.007-.007-.005-.009L.117,19.855A.809.809,0,0,1,.364,18.76a15.461,15.461,0,0,0,5.821-6.439,12.223,12.223,0,0,0,1.154-4.7H5.985a.8.8,0,0,1-.8-.8V.8a.8.8,0,0,1,.8-.8H26.572a.8.8,0,0,1,.806.8V6.815a.806.806,0,0,1-.806.8h-1.36a12.183,12.183,0,0,0,1.152,4.695,15.47,15.47,0,0,0,5.821,6.438.813.813,0,0,1,.25,1.1l-15.469,25.4a.8.8,0,0,1-.1.121.132.132,0,0,1-.022.032.814.814,0,0,1-.222.149l-.008,0a.418.418,0,0,1-.055.024.834.834,0,0,1-.278.056A.851.851,0,0,1,16,45.574ZM19.707,22.5a3.426,3.426,0,0,1-.766,2.156,3.462,3.462,0,0,1-1.857,1.172V41.954L30.659,19.671A16.667,16.667,0,0,1,24.8,12.759a13.864,13.864,0,0,1-1.193-5.133H8.956c-.065,2.248-.9,7.737-7.059,12.045L15.473,41.954V25.826a3.467,3.467,0,0,1-1.854-1.172A3.427,3.427,0,1,1,19.707,22.5Zm-5.247,0a1.818,1.818,0,1,0,1.82-1.82A1.821,1.821,0,0,0,14.46,22.5ZM6.791,6.016H25.768V1.607H6.791Z" transform="translate(242 -12014)" fill="#191919"/>
    <rect id="area" width="48" height="48" transform="translate(236 -12014)" fill="#191919" opacity="0"/>
  </g>
</svg>
