<svg xmlns="http://www.w3.org/2000/svg" width="48" height="48" viewBox="0 0 48 48">
  <g id="icon" transform="translate(-236 12014)">
    <path id="location_icon" d="M16.117,48a.794.794,0,0,1-.5-.175L13.64,46.257,4.671,44.673a.806.806,0,0,1-.6-1.114l3.123-7.216L1.62,34.41a.81.81,0,0,1-.525-.6l-1.078-5.1a.806.806,0,0,1,.141-.647l1.063-1.439-.95-2.946A.8.8,0,0,1,.5,22.831l1.464-1.295L1.639,18.11a.815.815,0,0,1,.206-.62.806.806,0,0,1,.6-.264h.683l2.268-1.752L4.475,14.1a.81.81,0,0,1,.052-.964l2.548-3.045-.1-2.114a.81.81,0,0,1,.707-.84l2.185-.269a.811.811,0,0,1,.1-.007.8.8,0,0,1,.627.306l1.18,1.492.258-1.406a.807.807,0,0,1,.736-.659l.524-.038-.717-1.83a.808.808,0,0,1,.162-.846l.772-.823-.943-1.886A.806.806,0,0,1,13.29,0c.025,0,.046,0,.066,0l4.905.411a.809.809,0,0,1,.728.94L18.659,3.3l.965.715a.806.806,0,0,1,.274.362l.771,2.036,6.36-2.983a.807.807,0,0,1,.926.173l5.718,5.972a.8.8,0,0,1,.217.671l-.52,3.647,2.587,11.473a.807.807,0,0,1-.789.984A.858.858,0,0,1,35,26.33l-2.95-.632-7.106,3.754,6.267,9.116a.8.8,0,0,1-.148,1.076L27.718,42.43l.54,3.243a.807.807,0,0,1-1.037.9l-3.609-1.133-3.94,2.079a.811.811,0,0,1-.829-.046l-1.425-.968-.594,1.076a.815.815,0,0,1-.552.4A.727.727,0,0,1,16.117,48ZM9.608,8.527l-.992.123.08,1.679a.814.814,0,0,1-.186.556L6.149,13.71l1,1.5A.81.81,0,0,1,6.971,16.3L3.888,18.676a.8.8,0,0,1-.373.159l-.189.028L3.607,21.8a.808.808,0,0,1-.268.682L1.962,23.695l.916,2.837a.806.806,0,0,1-.119.726l-1.093,1.48.91,4.3L8.54,35.107a.8.8,0,0,1,.473.438.809.809,0,0,1,0,.644L5.954,43.265l8.163,1.44a.8.8,0,0,1,.361.162l1.391,1.1.561-1.015a.81.81,0,0,1,1.16-.278l1.757,1.193,3.809-2.009a.826.826,0,0,1,.38-.093.807.807,0,0,1,.24.036l2.676.839-.4-2.4a.81.81,0,0,1,.279-.753l3.135-2.612L23.1,29.62a.813.813,0,0,1-.118-.651.8.8,0,0,1,.407-.521l8.169-4.315a.8.8,0,0,1,.377-.093.856.856,0,0,1,.168.017l2,.438L31.76,14.106a.8.8,0,0,1-.012-.291l.484-3.4-5.047-5.27L20.562,8.246a.8.8,0,0,1-.342.076.807.807,0,0,1-.756-.521l-.994-2.63L17.3,4.3a.8.8,0,0,1-.315-.783l.265-1.565-2.6-.218.553,1.1a.807.807,0,0,1-.133.912l-.808.861.931,2.376a.807.807,0,0,1-.693,1.1l-.995.072-.466,2.545a.8.8,0,0,1-.6.636.833.833,0,0,1-.2.024.8.8,0,0,1-.632-.306l-2-2.535Z" transform="translate(242 -12014)" fill="#191919"/>
    <rect id="area" width="48" height="48" transform="translate(236 -12014)" fill="#191919" opacity="0"/>
  </g>
</svg>
