<svg xmlns="http://www.w3.org/2000/svg" width="48" height="48" viewBox="0 0 48 48">
  <g id="icon" transform="translate(-236 12014)">
    <path id="quality_icon" d="M8.447,47.348l-1.195-5.48L1.855,43.4a.85.85,0,0,1-.235.034.829.829,0,0,1-.7-1.254L7.646,30.952a3.632,3.632,0,0,0-.677-.182,5.337,5.337,0,0,1-4.413-6.057,3.7,3.7,0,0,0-1.015-3.148,5.361,5.361,0,0,1-.016-7.508,3.7,3.7,0,0,0,1.033-3.148,5.351,5.351,0,0,1,4.4-6.077A3.7,3.7,0,0,0,9.646,2.885a5.3,5.3,0,0,1,2-2.129A5.37,5.37,0,0,1,14.393,0,5.25,5.25,0,0,1,16.78.569a3.709,3.709,0,0,0,1.66.393A3.686,3.686,0,0,0,20.091.571a5.335,5.335,0,0,1,7.141,2.314A3.673,3.673,0,0,0,29.9,4.829a5.352,5.352,0,0,1,4.42,6.059,3.709,3.709,0,0,0,1.015,3.155,5.351,5.351,0,0,1,.019,7.5,3.7,3.7,0,0,0-1.034,3.18,5.332,5.332,0,0,1-4.413,6.047,3.736,3.736,0,0,0-.678.182l6.727,11.227a.817.817,0,0,1,.011.83.814.814,0,0,1-.946.39l-5.4-1.531-1.195,5.48a.825.825,0,0,1-.813.65.811.811,0,0,1-.7-.4L19.2,34.728a3.707,3.707,0,0,0-1.529,0L9.964,47.6a.815.815,0,0,1-.7.4A.824.824,0,0,1,8.447,47.348Zm18.81-2.392.94-4.3A.827.827,0,0,1,29,40.005a.868.868,0,0,1,.227.032l4.233,1.2-5.617-9.378a3.611,3.611,0,0,0-.616.855,5.3,5.3,0,0,1-2,2.133,5.374,5.374,0,0,1-2.748.757,5.1,5.1,0,0,1-.87-.077ZM8.68,40.656l.938,4.3,5.648-9.428a5.255,5.255,0,0,1-.875.072,5.368,5.368,0,0,1-2.745-.756,5.286,5.286,0,0,1-2-2.129,3.653,3.653,0,0,0-.619-.855L3.414,41.237l4.23-1.2a.849.849,0,0,1,.227-.032A.831.831,0,0,1,8.68,40.656ZM11.118,3.643A5.342,5.342,0,0,1,7.242,6.461,3.694,3.694,0,0,0,4.191,10.64a5.358,5.358,0,0,1-1.475,4.568A3.693,3.693,0,0,0,2.7,20.38a5.374,5.374,0,0,1,1.5,4.565,3.689,3.689,0,0,0,3.037,4.191,5.341,5.341,0,0,1,3.886,2.826,3.663,3.663,0,0,0,3.275,1.991h0a3.605,3.605,0,0,0,1.643-.392,5.347,5.347,0,0,1,4.8,0,3.674,3.674,0,0,0,4.919-1.6,5.345,5.345,0,0,1,3.886-2.826,3.68,3.68,0,0,0,3.041-4.174h0a5.382,5.382,0,0,1,1.47-4.56,3.69,3.69,0,0,0,1.073-2.6,3.63,3.63,0,0,0-1.053-2.58,5.373,5.373,0,0,1-1.492-4.563,3.7,3.7,0,0,0-3.033-4.2,5.355,5.355,0,0,1-3.889-2.82,3.663,3.663,0,0,0-3.273-1.99,3.62,3.62,0,0,0-1.644.392,5.367,5.367,0,0,1-2.406.571,5.352,5.352,0,0,1-2.4-.568,3.672,3.672,0,0,0-4.921,1.594ZM7.357,17.8A11.082,11.082,0,1,1,18.439,28.89,11.094,11.094,0,0,1,7.357,17.8Zm1.654,0a9.428,9.428,0,1,0,9.428-9.425A9.443,9.443,0,0,0,9.011,17.8Zm23.672,7.162h0ZM15.989,21.173l-1.841-1.841a.828.828,0,0,1,.584-1.413.828.828,0,0,1,.586.242l1.256,1.258,4.984-4.983a.819.819,0,0,1,.584-.243.827.827,0,0,1,.828.828.82.82,0,0,1-.242.585l-5.569,5.567a.82.82,0,0,1-.584.244A.829.829,0,0,1,15.989,21.173Z" transform="translate(242 -12014)" fill="#191919"/>
    <rect id="area" width="48" height="48" transform="translate(236 -12014)" fill="#191919" opacity="0"/>
  </g>
</svg>
