<svg xmlns="http://www.w3.org/2000/svg" width="26" height="26" viewBox="0 0 26 26">
  <g id="btn_menu" transform="translate(0 -0.473)">
    <path id="close_icon" d="M4.216,23.786a.714.714,0,0,0,1.011,0l8.779-8.779,8.783,8.779A.715.715,0,0,0,23.8,22.775L15.017,14,23.8,5.214A.715.715,0,0,0,22.785,4.2l-8.779,8.783L5.223,4.207A.714.714,0,0,0,4.216,5.214L13,14,4.216,22.779a.714.714,0,0,0,0,1.007Z" transform="translate(-1.009 -0.73)" stroke="#000" stroke-width="1"/>
    <rect id="area" width="26" height="26" transform="translate(0 0.473)" opacity="0"/>
  </g>
</svg>
