<svg xmlns="http://www.w3.org/2000/svg" width="32" height="32" viewBox="0 0 32 32">
  <g id="그룹_33315" data-name="그룹 33315" transform="translate(-15474 20148)">
    <g id="btn_cart" transform="translate(13926 -20177)">
      <g id="icon_cart" transform="translate(-2.001 2)">
        <path id="icon_cart-2" data-name="icon_cart" d="M22.493,26.211,20.107,6.922l-2.489-.83C17.1,2.67,15.233.7,12.122.7,8.907.7,6.73,3.4,5.693,8.581L2.167,9.619.3,25.8l14.726,2.9v-.1Zm-1.452-.933-5.911,1.97.933-20.222,2.8.933ZM12.019,2.048c2.074,0,3.422,1.244,3.941,3.422l-8.815,2.7C8.078,4.122,9.737,2.048,12.019,2.048ZM1.752,24.759l1.659-14,11.3-3.319-.933,19.807Z" transform="translate(1554.702 28.301)" fill="#fff"/>
      </g>
      <rect id="area" width="32" height="32" transform="translate(1548 29)" fill="#fff" opacity="0"/>
    </g>
  </g>
</svg>
