<svg xmlns="http://www.w3.org/2000/svg" width="165" height="38" viewBox="0 0 165 38">
  <g id="logo" transform="translate(-240 -63)">
    <path id="logo-2" data-name="logo" d="M49.751,9.287h-.474c-.284.569-.379.853-.663,1.421l-.379.853-4.075,7.2-.853,1.516L42.643,21.7h7.771ZM15.352,0H28.9L18.195,26.534a9.517,9.517,0,0,1-.853,1.706l.095.095c.663,0,.853-.095,1.137-.095h7.3c.569-.948.663-1.232,1.232-2.274L43.781,0H59.322l2.653,26.344.095,2.938.095,1.232h.379a29.32,29.32,0,0,1,1.421-4.549L74.673,0H93.721L92.2,16.489l-.095,1.706-.19,1.99H92.3c1.137-1.99,1.516-2.843,2.274-3.98L105.092,0h29.282l2.369,10.329a8.26,8.26,0,0,1,.379,2.843h.284a20.487,20.487,0,0,1,2.274-2.938L149.157.095h15.825L140.344,24.354l-5.5,13.551H121.865l6.349-16.2L125.087,9c-.095-.853-.284-1.421-.379-2.938h-.284l-1.232,3.411-.948,2.843L111.915,37.905H99.5l8.623-20.848a21.355,21.355,0,0,1,1.8-4.075l-.853-.095-.853,1.421-1.137,1.706L91.352,37.905H80.17l1.8-21.7a24.689,24.689,0,0,1,.284-3.222h-.569c-.853,2.369-1.137,3.506-1.8,5.117L72.3,38H51.267L50.7,31.935v-1.8H38l-4.454,7.771H0L15.352,0Z" transform="translate(240 63)" fill="#fff" fill-rule="evenodd"/>
    <rect id="area" width="165" height="38" transform="translate(240 63)" fill="#fff" opacity="0"/>
  </g>
</svg>
