<svg xmlns="http://www.w3.org/2000/svg" width="32" height="32" viewBox="0 0 32 32">
  <g id="icon_account" transform="translate(-1496 -28)">
    <g id="icon_account-2" data-name="icon_account" transform="translate(1502.2 32.949)">
      <path id="body" d="M20.159,23.3a.76.76,0,0,1-.725-.577,8.5,8.5,0,0,0-8.592-8.077c-4.659,0-8.592,3.558-8.7,7.981a.57.57,0,0,1-.725.577A.6.6,0,0,1,.8,22.531,9.741,9.741,0,0,1,10.738,13.3c5.383,0,9.938,4.135,10.042,9.231.1.481-.207.673-.621.769Z" transform="translate(-1 -0.25)" fill="#fff"/>
      <path id="face" d="M10.842,12.4a6,6,0,0,1,0-12,6.1,6.1,0,0,1,6.058,6A6.1,6.1,0,0,1,10.842,12.4Zm0-10.588a4.588,4.588,0,0,0,0,9.176A4.475,4.475,0,0,0,15.269,6.4,4.475,4.475,0,0,0,10.842,1.812Z" transform="translate(-1.1 -1.35)" fill="#fff"/>
    </g>
    <rect id="area" width="32" height="32" transform="translate(1496 28)" fill="#fff" opacity="0"/>
  </g>
</svg>
